<svg width="46" height="75" viewBox="0 0 46 75" fill="none" xmlns="http://www.w3.org/2000/svg">
<path d="M24 0L7 17L24 34L41 17L24 0ZM23.8346 10.9144V11.0136L7.85993 16.6031L23.8346 0.628372V10.9144ZM23.8346 11.3774V33.3715L7.52919 17.0661L23.8346 11.3774ZM24.1654 11.3774L40.4708 17.0661L24.1654 33.3715V11.3774ZM24.1654 11.0467V0.661478L40.1401 16.6362L24.1654 11.0467Z" fill="white"/>
<path d="M3.92156 69.928H2.54556V75H1.84156V64.328H3.90556C4.81223 64.328 5.5589 64.5733 6.14556 65.064C6.73223 65.544 7.02556 66.2267 7.02556 67.112C7.02556 67.9867 6.7429 68.6747 6.17756 69.176C5.61223 69.6773 4.86023 69.928 3.92156 69.928ZM2.54556 64.968V69.288H3.95356C4.65756 69.288 5.2229 69.096 5.64956 68.712C6.07623 68.3173 6.28956 67.7893 6.28956 67.128C6.28956 66.456 6.0709 65.928 5.63356 65.544C5.2069 65.16 4.60956 64.968 3.84156 64.968H2.54556ZM19.3981 75L17.9741 71.496H13.4301L12.0061 75H11.2381L15.7341 64.008L20.1661 75H19.3981ZM13.6861 70.856H17.7181L15.7181 65.8L13.6861 70.856ZM30.8249 64.968H28.0569V75H27.3529V64.968H24.5849V64.328H30.8249V64.968ZM37.9924 64.328V68.856H44.4564V64.328H45.1604V75H44.4564V69.496H37.9924V75H37.2884V64.328H37.9924Z" fill="white"/>
</svg>
