<svg width="32" height="28" viewBox="0 0 32 28" fill="none" xmlns="http://www.w3.org/2000/svg">
<path d="M25.4686 25.1183C25.0699 24.6735 24.6096 24.3433 24.1216 24.132C23.6354 23.9215 23.1054 23.8241 22.5913 23.8805C22.1824 23.9253 21.7102 24.0807 21.3295 24.4289C21.3281 24.4266 21.3267 24.4242 21.3254 24.4219C21.3081 24.3931 21.2903 24.3631 21.2719 24.3321C21.1735 24.1668 21.0595 23.975 20.9435 23.7949C20.8056 23.5806 20.635 23.3347 20.4335 23.1114C20.2384 22.8952 19.9509 22.6281 19.56 22.4575C19.1269 22.2686 18.62 22.2238 18.1101 22.4046C17.6448 22.5695 17.2892 22.8824 17.0203 23.1982C16.4713 23.8428 15.5916 24.4337 14.6294 24.8818C13.6609 25.3328 12.7746 25.563 12.307 25.5982C11.6929 25.6444 11.5783 25.6282 11.3225 25.5793C11.2389 25.5634 11.137 25.5419 11.0113 25.5154C10.6123 25.4312 9.97372 25.2965 8.91968 25.1272L8.91919 25.1272C6.71203 24.7735 4.75128 24.9633 3.05651 25.3923L16 2.74117L29.2095 25.8578C28.9536 25.8848 28.7327 25.9198 28.5439 25.9521C28.4892 25.9614 28.4415 25.9697 28.3987 25.9772C28.2474 25.7871 28.0076 25.5204 27.6522 25.3093C27.2621 25.0776 26.805 24.9548 26.2928 24.9703C25.9876 24.9796 25.7132 25.0329 25.4686 25.1183Z" stroke="white" stroke-width="2.72"/>
</svg>
