<svg width="69" height="72" viewBox="0 0 69 72" fill="none" xmlns="http://www.w3.org/2000/svg">
<path d="M21 0V30H50V0H21ZM43.6264 6.23082L31.2615 4.54947L21.9242 0.36267H49.4582L43.6264 6.23082ZM41.8736 19.088L29.7319 17.4396L31.3253 4.87914L43.467 6.52749L41.8736 19.088ZM31.0385 4.78022L29.4132 17.5055L21.3187 29.3077V0.428588L31.0385 4.78022ZM29.6363 17.7693L41.9374 19.4506L49.522 29.7033H21.478L29.6363 17.7693ZM42.1923 19.2528L43.8176 6.49449L49.6813 0.593423V29.3737L42.1923 19.2528Z" fill="white"/>
<path d="M3.79344 65.928H2.41744V71H1.71344V60.328H3.77744C4.6841 60.328 5.43077 60.5733 6.01744 61.064C6.6041 61.544 6.89744 62.2267 6.89744 63.112C6.89744 63.9867 6.61477 64.6747 6.04944 65.176C5.4841 65.6773 4.7321 65.928 3.79344 65.928ZM2.41744 60.968V65.288H3.82544C4.52944 65.288 5.09477 65.096 5.52144 64.712C5.9481 64.3173 6.16144 63.7893 6.16144 63.128C6.16144 62.456 5.94277 61.928 5.50544 61.544C5.07877 61.16 4.48144 60.968 3.71344 60.968H2.41744ZM19.2699 71L17.8459 67.496H13.3019L11.8779 71H11.1099L15.6059 60.008L20.0379 71H19.2699ZM13.5579 66.856H17.5899L15.5899 61.8L13.5579 66.856ZM28.5809 65.928H27.2049V71H26.5009V60.328H28.5649C29.4716 60.328 30.2183 60.5733 30.8049 61.064C31.3916 61.544 31.6849 62.2267 31.6849 63.112C31.6849 63.9867 31.4023 64.6747 30.8369 65.176C30.2716 65.6773 29.5196 65.928 28.5809 65.928ZM27.2049 60.968V65.288H28.6129C29.3169 65.288 29.8823 65.096 30.3089 64.712C30.7356 64.3173 30.9489 63.7893 30.9489 63.128C30.9489 62.456 30.7303 61.928 30.2929 61.544C29.8663 61.16 29.2689 60.968 28.5009 60.968H27.2049ZM43.5616 60.328V60.968H39.1456V64.84H43.4656V65.48H39.1456V70.36H43.5616V71H38.4416V60.328H43.5616ZM55.9434 71H55.1434L51.6874 65.96H51.3674V71H50.6634V60.328H52.1994C53.1701 60.328 53.9221 60.5093 54.4554 60.872C55.1914 61.384 55.5594 62.1467 55.5594 63.16C55.5594 63.7467 55.4154 64.2747 55.1274 64.744C54.8394 65.2027 54.3861 65.5387 53.7674 65.752C53.3621 65.8907 52.9248 65.96 52.4554 65.96L55.9434 71ZM51.3674 60.968V65.32H52.3914C53.1488 65.32 53.7408 65.128 54.1674 64.744C54.6048 64.36 54.8234 63.8267 54.8234 63.144C54.8234 62.248 54.5088 61.6293 53.8794 61.288C53.5061 61.0747 52.9621 60.968 52.2474 60.968H51.3674ZM68.3238 61.704L67.8118 62.136C67.3638 61.2613 66.6651 60.824 65.7158 60.824C65.1078 60.824 64.6225 61.016 64.2598 61.4C63.9078 61.784 63.7318 62.2533 63.7318 62.808C63.7318 63.0853 63.7691 63.3253 63.8438 63.528C63.9291 63.7307 64.0731 63.9173 64.2758 64.088C64.4891 64.2587 64.6758 64.392 64.8358 64.488C64.9958 64.5733 65.2518 64.7013 65.6038 64.872C66.7558 65.4267 67.4651 65.8 67.7318 65.992C68.4891 66.5147 68.8678 67.2027 68.8678 68.056C68.8678 68.9413 68.5425 69.6827 67.8918 70.28C67.2411 70.8773 66.4571 71.176 65.5398 71.176C64.5265 71.176 63.6998 70.8027 63.0598 70.056C62.7505 69.6933 62.5211 69.304 62.3718 68.888L62.9798 68.6C63.1078 68.984 63.2998 69.3253 63.5558 69.624C64.0358 70.232 64.7025 70.536 65.5558 70.536C66.2811 70.536 66.8891 70.3013 67.3798 69.832C67.8811 69.3627 68.1318 68.776 68.1318 68.072C68.1318 67.3787 67.7851 66.8187 67.0918 66.392C66.7825 66.2107 66.1798 65.9013 65.2838 65.464C64.6971 65.176 64.2651 64.9413 63.9878 64.76C63.7211 64.5787 63.5025 64.344 63.3318 64.056C63.1078 63.6827 62.9958 63.2773 62.9958 62.84C62.9958 62.1467 63.2305 61.5333 63.6998 61C64.1691 60.456 64.8465 60.184 65.7318 60.184C66.2758 60.184 66.7771 60.3173 67.2358 60.584C67.6945 60.84 68.0571 61.2133 68.3238 61.704Z" fill="white"/>
</svg>
