<svg width="84" height="75" viewBox="0 0 84 75" fill="none" xmlns="http://www.w3.org/2000/svg">
<path d="M26.297 0L26 0.198032V26.202L26.297 26.4H39.2V0H26.297ZM38.474 0.33L32.6 4.55402L26.726 0.33H38.474ZM26.33 0.462048L32.435 4.88402V22.209L26.33 26.004V0.462048ZM26.825 26.07L32.6 22.473L38.375 26.07H26.825ZM38.87 26.004L32.765 22.209V4.88402L38.87 0.462048V26.004ZM59 6.6H46.097L45.8 6.79803V32.8021L46.097 33H59V6.6ZM58.274 6.93L52.4 11.154L46.526 6.93H58.274ZM46.13 7.06205L52.235 11.484V28.809L46.13 32.604V7.06205ZM46.625 32.67L52.4 29.073L58.175 32.67H46.625ZM58.67 32.604L52.565 28.809V11.484L58.67 7.06205V32.604Z" fill="white"/>
<path d="M6.55619 63.968H3.78819V74H3.08419V63.968H0.316186V63.328H6.55619V63.968ZM18.1397 63.328V63.968H13.7237V67.84H18.0437V68.48H13.7237V73.36H18.1397V74H13.0197V63.328H18.1397ZM30.6176 64.704L30.1056 65.136C29.6576 64.2613 28.9589 63.824 28.0096 63.824C27.4016 63.824 26.9162 64.016 26.5536 64.4C26.2016 64.784 26.0256 65.2533 26.0256 65.808C26.0256 66.0853 26.0629 66.3253 26.1376 66.528C26.2229 66.7307 26.3669 66.9173 26.5696 67.088C26.7829 67.2587 26.9696 67.392 27.1296 67.488C27.2896 67.5733 27.5456 67.7013 27.8976 67.872C29.0496 68.4267 29.7589 68.8 30.0256 68.992C30.7829 69.5147 31.1616 70.2027 31.1616 71.056C31.1616 71.9413 30.8362 72.6827 30.1856 73.28C29.5349 73.8773 28.7509 74.176 27.8336 74.176C26.8202 74.176 25.9936 73.8027 25.3536 73.056C25.0442 72.6933 24.8149 72.304 24.6656 71.888L25.2736 71.6C25.4016 71.984 25.5936 72.3253 25.8496 72.624C26.3296 73.232 26.9962 73.536 27.8496 73.536C28.5749 73.536 29.1829 73.3013 29.6736 72.832C30.1749 72.3627 30.4256 71.776 30.4256 71.072C30.4256 70.3787 30.0789 69.8187 29.3856 69.392C29.0762 69.2107 28.4736 68.9013 27.5776 68.464C26.9909 68.176 26.5589 67.9413 26.2816 67.76C26.0149 67.5787 25.7962 67.344 25.6256 67.056C25.4016 66.6827 25.2896 66.2773 25.2896 65.84C25.2896 65.1467 25.5242 64.5333 25.9936 64C26.4629 63.456 27.1402 63.184 28.0256 63.184C28.5696 63.184 29.0709 63.3173 29.5296 63.584C29.9882 63.84 30.3509 64.2133 30.6176 64.704ZM42.6281 63.968H39.8601V74H39.1561V63.968H36.3881V63.328H42.6281V63.968ZM49.7956 74H49.0916V63.216L58.0516 72.592V63.328H58.7556V74.272L49.7956 64.896V74ZM71.5584 63.328V63.968H67.1424V67.84H71.4624V68.48H67.1424V73.36H71.5584V74H66.4384V63.328H71.5584ZM83.6843 63.968H80.9163V74H80.2123V63.968H77.4443V63.328H83.6843V63.968Z" fill="white"/>
</svg>
